# xmcd CD database file
#
# Track frame offsets:
#	150
#	17060
#	35232
#	55405
#	70987
#	91295
#	109337
#	126615
#	144575
#	162495
#	186775
#	209557
#	226010
#	241892
#	258580
#	274655
#	294710
#	316890
#
# Disc length: 4359 seconds
#
# Revision: 0
# Processed by: cddbd v1.4PL0 Copyright (c) Steve Scherf et al.
# Submitted via: CDex 1.50beta9
#
DISCID=1a110512
DTITLE=Shakatak - The Best of Jazz Connections Vol.2 CD1
DYEAR=2001
DGENRE=Jazz
TTITLE0=No One Knows
TTITLE1=Blue Note
TTITLE2=One Love
TTITLE3=Cavalcante
TTITLE4=Heart To Heart
TTITLE5=Climbing High
TTITLE6=Disorder At The Border
TTITLE7=Midnight Walkin'
TTITLE8=Danceland
TTITLE9=Silk Emotion
TTITLE10=Just The Way We Are
TTITLE11=Racing With The Wind
TTITLE12=Kagape
TTITLE13=Sunshiny Day
TTITLE14=I'll See Ya
TTITLE15=High Life
TTITLE16=When Night Falls
TTITLE17=Interlude
EXTD=YEAR: 2001
EXTT0=
EXTT1=
EXTT2=
EXTT3=
EXTT4=
EXTT5=
EXTT6=
EXTT7=
EXTT8=
EXTT9=
EXTT10=
EXTT11=
EXTT12=
EXTT13=
EXTT14=
EXTT15=
EXTT16=
EXTT17=
PLAYORDER=
